<svg width="12" height="21" viewBox="0 0 12 21" fill="none" xmlns="http://www.w3.org/2000/svg">
<path d="M0.4375 10.3916C0.4375 10.1108 0.538574 9.85254 0.751953 9.65039L9.65771 0.935547C9.84863 0.744629 10.0957 0.643555 10.3877 0.643555C10.9717 0.643555 11.4209 1.08154 11.4209 1.66553C11.4209 1.94629 11.2974 2.20459 11.1177 2.39551L2.94189 10.3916L11.1177 18.3877C11.2974 18.5786 11.4209 18.8257 11.4209 19.1177C11.4209 19.7017 10.9717 20.1396 10.3877 20.1396C10.0957 20.1396 9.84863 20.0386 9.65771 19.8364L0.751953 11.1328C0.538574 10.9194 0.4375 10.6724 0.4375 10.3916Z" fill="#406836"/>
</svg>
