<svg width="18" height="14" viewBox="0 0 18 14" fill="none" xmlns="http://www.w3.org/2000/svg">
<path d="M15.1215 0.00402832H2.8785C2.18271 0.00402832 1.51541 0.280432 1.02341 0.772434C0.531409 1.26444 0.255005 1.93173 0.255005 2.62753V11.3725C0.255005 12.0683 0.531409 12.7356 1.02341 13.2276C1.51541 13.7196 2.18271 13.996 2.8785 13.996H15.1215C15.8173 13.996 16.4846 13.7196 16.9766 13.2276C17.4686 12.7356 17.745 12.0683 17.745 11.3725V2.62753C17.745 1.93173 17.4686 1.26444 16.9766 0.772434C16.4846 0.280432 15.8173 0.00402832 15.1215 0.00402832ZM14.5356 1.75303L9 5.9069L3.46442 1.75303H14.5356ZM15.1215 12.247H2.8785C2.64657 12.247 2.42414 12.1549 2.26014 11.9909C2.09614 11.8269 2.004 11.6045 2.004 11.3725V2.84615L8.4753 7.69963C8.62668 7.81316 8.81079 7.87453 9 7.87453C9.18922 7.87453 9.37333 7.81316 9.5247 7.69963L15.996 2.84615V11.3725C15.996 11.6045 15.9039 11.8269 15.7399 11.9909C15.5759 12.1549 15.3534 12.247 15.1215 12.247Z" fill="#191D17"/>
</svg>
