<svg width="18" height="18" viewBox="0 0 18 18" fill="none" xmlns="http://www.w3.org/2000/svg">
<mask id="mask0_234_135" style="mask-type:alpha" maskUnits="userSpaceOnUse" x="0" y="0" width="18" height="18">
<rect x="0.255005" y="0.255005" width="17.49" height="17.49" fill="#D9D9D9"/>
</mask>
<g mask="url(#mask0_234_135)">
<path d="M11.9879 9.94741L10.9312 8.89072C11.0405 8.31987 10.8765 7.78545 10.4393 7.28747C10.002 6.78949 9.43726 6.59516 8.74495 6.70447L7.68826 5.64778C7.89474 5.55062 8.10426 5.47774 8.31681 5.42916C8.52936 5.38057 8.7571 5.35628 9.00001 5.35628C9.91095 5.35628 10.6852 5.67511 11.3229 6.31277C11.9606 6.95042 12.2794 7.72472 12.2794 8.63566C12.2794 8.87857 12.2551 9.10631 12.2065 9.31886C12.1579 9.53141 12.0851 9.74093 11.9879 9.94741ZM14.3199 12.243L13.2632 11.2227C13.7247 10.8705 14.1347 10.4849 14.493 10.0658C14.8513 9.6468 15.158 9.17007 15.413 8.63566C14.8057 7.40893 13.9343 6.43423 12.7986 5.71155C11.663 4.98887 10.3968 4.62753 9.00001 4.62753C8.64779 4.62753 8.30163 4.65182 7.96155 4.70041C7.62146 4.74899 7.28745 4.82187 6.95951 4.91903L5.82995 3.78947C6.32793 3.58299 6.83806 3.42813 7.36033 3.32489C7.8826 3.22165 8.42916 3.17003 9.00001 3.17003C10.834 3.17003 12.4677 3.67712 13.9009 4.6913C15.3341 5.70548 16.3725 7.02026 17.0163 8.63566C16.7369 9.35226 16.3695 10.0172 15.914 10.6306C15.4586 11.244 14.9272 11.7814 14.3199 12.243ZM14.6843 16.7248L11.6235 13.7005C11.1984 13.8341 10.7703 13.9343 10.3391 14.0011C9.90792 14.0679 9.46156 14.1013 9.00001 14.1013C7.16599 14.1013 5.53238 13.5942 4.09917 12.58C2.66596 11.5658 1.62749 10.2511 0.983765 8.63566C1.23883 7.99193 1.56069 7.39375 1.94936 6.84111C2.33803 6.28848 2.78135 5.79353 3.27933 5.35628L1.27526 3.31578L2.29551 2.29553L15.7045 15.7045L14.6843 16.7248ZM4.29958 6.37653C3.94735 6.69232 3.62548 7.03848 3.33398 7.415C3.04248 7.79152 2.79349 8.19841 2.58701 8.63566C3.19431 9.86239 4.06577 10.8371 5.20141 11.5598C6.33704 12.2824 7.60324 12.6438 9.00001 12.6438C9.24293 12.6438 9.47978 12.6286 9.71055 12.5982C9.94132 12.5679 10.1782 12.5345 10.4211 12.498L9.7652 11.8057C9.6316 11.8422 9.50407 11.8695 9.38261 11.8877C9.26115 11.9059 9.13362 11.915 9.00001 11.915C8.08908 11.915 7.31478 11.5962 6.67712 10.9585C6.03947 10.3209 5.72064 9.5466 5.72064 8.63566C5.72064 8.50205 5.72975 8.37452 5.74797 8.25306C5.76619 8.13161 5.79351 8.00407 5.82995 7.87047L4.29958 6.37653Z" fill="#191D17"/>
</g>
</svg>
