<svg width="18" height="14" viewBox="0 0 18 14" fill="none" xmlns="http://www.w3.org/2000/svg">
<path d="M17.3729 6.56481C16.8134 5.5945 13.7364 0.725471 8.50898 0.882819C3.67491 1.0052 0.877627 5.25358 0.117114 6.56481C0.0403914 6.6977 0 6.84844 0 7.00189C0 7.15533 0.0403914 7.30607 0.117114 7.43896C0.66783 8.39179 3.61373 13.121 8.76248 13.121H8.98102C13.8151 12.9986 16.6211 8.75019 17.3729 7.43896C17.4496 7.30607 17.49 7.15533 17.49 7.00189C17.49 6.84844 17.4496 6.6977 17.3729 6.56481ZM8.93731 11.3726C5.16972 11.4601 2.71335 8.23444 1.94409 7.00189C2.81825 5.5945 5.09978 2.71854 8.59639 2.63112C12.3465 2.53497 14.8116 5.76933 15.5896 7.00189C14.6892 8.40927 12.4339 11.2852 8.93731 11.3726Z" fill="#231F20"/>
<path d="M8.74496 3.94238C8.13984 3.94238 7.54831 4.12182 7.04517 4.45801C6.54204 4.79419 6.14989 5.27203 5.91832 5.83108C5.68675 6.39014 5.62616 7.00531 5.74421 7.5988C5.86227 8.19229 6.15366 8.73745 6.58154 9.16533C7.00943 9.59322 7.55458 9.88461 8.14807 10.0027C8.74157 10.1207 9.35674 10.0601 9.91579 9.82856C10.4748 9.59699 10.9527 9.20484 11.2889 8.7017C11.6251 8.19856 11.8045 7.60703 11.8045 7.00192C11.8045 6.19048 11.4822 5.41227 10.9084 4.8385C10.3346 4.26473 9.5564 3.94238 8.74496 3.94238ZM8.74496 8.31314C8.48562 8.31314 8.23211 8.23624 8.01648 8.09216C7.80085 7.94808 7.63279 7.7433 7.53354 7.5037C7.4343 7.26411 7.40833 7.00046 7.45893 6.74611C7.50952 6.49175 7.6344 6.25812 7.81778 6.07474C8.00116 5.89136 8.2348 5.76648 8.48915 5.71588C8.74351 5.66529 9.00715 5.69126 9.24675 5.7905C9.48634 5.88974 9.69113 6.05781 9.83521 6.27344C9.97929 6.48907 10.0562 6.74258 10.0562 7.00192C10.0562 7.34968 9.91804 7.68319 9.67214 7.9291C9.42624 8.175 9.09272 8.31314 8.74496 8.31314Z" fill="#231F20"/>
</svg>
