<svg width="21" height="20" viewBox="0 0 21 20" fill="none" xmlns="http://www.w3.org/2000/svg">
<path d="M20.1573 10.2223C20.1573 9.40007 20.0916 8.80007 19.9493 8.17786H10.6972V11.8889H16.128C16.0185 12.8112 15.4273 14.2001 14.1133 15.1333L14.0949 15.2576L17.0203 17.5573L17.2229 17.5779C19.0843 15.8334 20.1573 13.2667 20.1573 10.2223Z" fill="#4285F4"/>
<path d="M10.6972 19.9999C13.3578 19.9999 15.5914 19.1109 17.2229 17.5777L14.1133 15.1332C13.2812 15.722 12.1643 16.1332 10.6972 16.1332C8.09129 16.1332 5.87956 14.3888 5.09114 11.9777L4.97557 11.9876L1.93376 14.3765L1.89398 14.4887C3.51445 17.7554 6.84302 19.9999 10.6972 19.9999Z" fill="#34A853"/>
<path d="M5.09097 11.9774C4.88294 11.3552 4.76254 10.6885 4.76254 9.99961C4.76254 9.31067 4.88294 8.64403 5.08002 8.02182L5.07451 7.8893L1.99458 5.46204L1.89381 5.51068C1.22594 6.86625 0.842712 8.3885 0.842712 9.99961C0.842712 11.6107 1.22594 13.1329 1.89381 14.4885L5.09097 11.9774Z" fill="#FBBC05"/>
<path d="M10.6972 3.86676C12.5476 3.86676 13.7958 4.67787 14.5075 5.35569L17.2886 2.60012C15.5806 0.989015 13.3578 0.00012207 10.6972 0.00012207C6.84302 0.00012207 3.51445 2.24455 1.89398 5.51119L5.08019 8.02233C5.87956 5.61123 8.09129 3.86676 10.6972 3.86676Z" fill="#EB4335"/>
</svg>
