<svg width="18" height="18" viewBox="0 0 18 18" fill="none" xmlns="http://www.w3.org/2000/svg">
<path d="M14.4656 5.4343H13.3725V3.77235C13.3725 2.83949 12.9118 1.94484 12.0918 1.28521C11.2718 0.625581 10.1597 0.255005 9 0.255005C7.84035 0.255005 6.72818 0.625581 5.90818 1.28521C5.08818 1.94484 4.6275 2.83949 4.6275 3.77235V5.4343H3.53438C2.66464 5.4343 1.83051 5.71223 1.21551 6.20695C0.60051 6.70167 0.255005 7.37266 0.255005 8.07231V15.107C0.255005 15.8066 0.60051 16.4776 1.21551 16.9723C1.83051 17.4671 2.66464 17.745 3.53438 17.745H14.4656C15.3354 17.745 16.1695 17.4671 16.7845 16.9723C17.3995 16.4776 17.745 15.8066 17.745 15.107V8.07231C17.745 7.37266 17.3995 6.70167 16.7845 6.20695C16.1695 5.71223 15.3354 5.4343 14.4656 5.4343ZM6.81375 3.77235C6.79905 3.29337 7.02084 2.82922 7.43059 2.48148C7.84033 2.13375 8.40464 1.93076 9 1.91695C9.59537 1.93076 10.1597 2.13375 10.5694 2.48148C10.9792 2.82922 11.201 3.29337 11.1863 3.77235V5.4343H6.81375V3.77235ZM15.5588 15.107C15.5588 15.3402 15.4436 15.5639 15.2386 15.7288C15.0336 15.8937 14.7555 15.9863 14.4656 15.9863H3.53438C3.24447 15.9863 2.96642 15.8937 2.76142 15.7288C2.55642 15.5639 2.44125 15.3402 2.44125 15.107V8.07231C2.44125 7.83909 2.55642 7.61543 2.76142 7.45052C2.96642 7.28561 3.24447 7.19297 3.53438 7.19297H14.4656C14.7555 7.19297 15.0336 7.28561 15.2386 7.45052C15.4436 7.61543 15.5588 7.83909 15.5588 8.07231V15.107Z" fill="#191D17"/>
<path d="M9.00002 8.95166C8.35142 8.95166 7.71739 9.10638 7.1781 9.39625C6.63881 9.68611 6.21848 10.0981 5.97027 10.5801C5.72206 11.0622 5.65712 11.5926 5.78366 12.1043C5.91019 12.616 6.22252 13.0861 6.68115 13.455C7.13978 13.824 7.72411 14.0752 8.36024 14.177C8.99638 14.2788 9.65575 14.2265 10.255 14.0269C10.8542 13.8272 11.3664 13.4891 11.7267 13.0553C12.0871 12.6214 12.2794 12.1114 12.2794 11.5897C12.2794 10.89 11.9339 10.219 11.3189 9.72431C10.7039 9.22959 9.86976 8.95166 9.00002 8.95166ZM9.00002 12.469C8.78382 12.469 8.57247 12.4174 8.39271 12.3208C8.21295 12.2242 8.07284 12.0869 7.9901 11.9262C7.90737 11.7655 7.88572 11.5887 7.9279 11.4181C7.97008 11.2475 8.07419 11.0909 8.22706 10.9679C8.37994 10.8449 8.57472 10.7612 8.78676 10.7272C8.99881 10.6933 9.2186 10.7107 9.41834 10.7773C9.61808 10.8438 9.7888 10.9565 9.90892 11.1011C10.029 11.2457 10.0931 11.4158 10.0931 11.5897C10.0931 11.8229 9.97798 12.0465 9.77297 12.2115C9.56797 12.3764 9.28993 12.469 9.00002 12.469Z" fill="#191D17"/>
</svg>
